<?xml version="1.0" encoding="utf-8"?>
<?xml-stylesheet type="text/xsl" href="rss1.xsl"?>
<rss version="2.0" xmlns:atom="http://www.w3.org/2005/Atom" xmlns:content="http://purl.org/rss/1.0/modules/content/" xmlns:dc="http://purl.org/dc/elements/1.1/" xmlns:media="http://search.yahoo.com/mrss/">
<channel>
 <title>Getty</title>
 <link>http://www.gettyimg.com/</link>
 <atom:link href="http://www.gettyimg.com/" rel="self" type="application/rss+xml" />

 
                <item>
                <title><![CDATA[【Singles (lossless)】FLAC - Conan Gray - Killing Me | Qobuz Hi-Res 24bit / 48.0kHz]]></title>
                <link><![CDATA[https://sharemania.us/threads/conan-gray-killing-me-qobuz-hi-res-24bit-48-0khz.231392/]]></link>
                <description><![CDATA[<article>
<blockquote class="messageText SelectQuoteContainer ugc baseHtml">
<div style="text-align: center"><img src="https://is1-ssl.mzstatic.com/image/thumb/Music126/v4/6c/0b/1c/6c0b1c6a-466e-3614-f6c4-c5a6f329dc80/23UM1IM27192.rgb.jpg/600x600bb.jpg" class="bbCodeImage LbImage" alt="[​IMG]" data-url="https://is1-ssl.mzstatic.com/image/thumb/Music126/v4/6c/0b/1c/6c0b1c6a-466e-3614-f6c4-c5a6f329dc80/23UM1IM27192.rgb.jpg/600x600bb.jpg" style=""> <br>
<br>
<div class="bbCodeBlock bbCodeVfcHH HiddenContent">
<div class="attribution type">Hidden Content:</div>
<blockquote>You must either reply or click 'Like' to see the hidden information contained here.</blockquote>
</div></div>
<div class="messageTextEndMarker">&nbsp;</div>
</blockquote>
</article>]]></description>
                <author><![CDATA[kaleb]]></author>
                </item>

                
                <item>
                <title><![CDATA[【HD Live Performances】HDTV - Katy Perry - California Gurls (Saturday Night Live, USA, 25-09-2010) [1080p59.94]]]></title>
                <link><![CDATA[https://sharemania.us/threads/katy-perry-california-gurls-saturday-night-live-usa-25-09-2010-1080p59-94.231390/]]></link>
                <description><![CDATA[<article>
<blockquote class="messageText SelectQuoteContainer ugc baseHtml">
I included 2 versions and you can pick the one you want: the original interlaced video and the processed version by me (the original video deinterlaced with QTGMC for double frame rate + deblocked + slightly denoised). The audio is identical for both videos. IMO the processed version is superior.<br>
<br>
<img src="https://i.postimg.cc/7Y4FwMRG/Katy-Perry-California-Gurls-Saturday-Night-Live-USA-25-09-2010-mkv.jpg" class="bbCodeImage LbImage" alt="[​IMG]" data-url="https://i.postimg.cc/7Y4FwMRG/Katy-Perry-California-Gurls-Saturday-Night-Live-USA-25-09-2010-mkv.jpg" style=""> <br>
<br>
<div class="bbCodeBlock bbCodeVfcHH HiddenContent">
<div class="attribution type">Hidden Content:</div>
<blockquote>You must reply before you can see the hidden data contained here.</blockquote>
</div>
<div class="messageTextEndMarker">&nbsp;</div>
</blockquote>
</article>]]></description>
                <author><![CDATA[caladan]]></author>
                </item>

                
                <item>
                <title><![CDATA[【MASTER &amp; MASTER RIP】MASTER - The Veronicas - This Love (Master 576p)]]></title>
                <link><![CDATA[https://sharemania.us/threads/the-veronicas-this-love-master-576p.231389/]]></link>
                <description><![CDATA[<article>
<blockquote class="messageText SelectQuoteContainer ugc baseHtml">
thanks
<div class="messageTextEndMarker">&nbsp;</div>
</blockquote>
</article>]]></description>
                <author><![CDATA[fstambuk]]></author>
                </item>

                
                <item>
                <title><![CDATA[【PRORES HD】Jonas Blue &amp; Paloma Faith - Mistakes (ProRes 1080)]]></title>
                <link><![CDATA[https://sharemania.us/threads/jonas-blue-paloma-faith-mistakes-prores-1080.231393/]]></link>
                <description><![CDATA[<article>
<blockquote class="messageText SelectQuoteContainer ugc baseHtml">
<div style="text-align: center"><img src="https://i.imgur.com/yQddTLn.gif" class="bbCodeImage LbImage" alt="[​IMG]" data-url="https://i.imgur.com/yQddTLn.gif" style=""><br>
​</div>
<div class="ToggleTriggerAnchor bbCodeSpoilerContainer">
<button type="button" class="button bbCodeSpoilerButton ToggleTrigger Tooltip JsOnly" data-target="> .SpoilerTarget"><span>Spoiler: <span class="SpoilerTitle">MASTER</span></span></button>
<div class="SpoilerTarget bbCodeSpoilerText">
<div class="bbCodeBlock bbCodeCode">
<div class="type">Code:</div>
<pre>ormat                                   : MPEG-4
Format profile                           : QuickTime
Codec ID                                 : qt   2005.03 (qt  )
File size                                : 36.1 MiB
Duration                                 : 2 min 59 s
Overall bit rate                         : 1 688 kb/s
Encoded date                             : UTC 2008-04-08 00:44:28
Tagged date                              : UTC 2008-04-08 00:44:29
Writing library                          : Apple QuickTime

Video
ID                                       : 2
Format                                   : AVC
Format/Info                              : Advanced Video Codec
Format profile                           : Main@L3
Format settings                          : 2 Ref Frames
Format settings, CABAC                   : No
Format settings, Reference frames        : 2 frames
Format settings, GOP                     : M=2, N=120
Codec ID                                 : avc1
Codec ID/Info                            : Advanced Video Coding
Duration                                 : 2 min 59 s
Bit rate                                 : 1 556 kb/s
Width                                    : 720 pixels
Clean aperture width                     : 703 pixels
Height                                   : 576 pixels
Clean aperture height                    : 576 pixels
Display aspect ratio                     : 1.85:1
Original display aspect ratio            : 5:4
Clean aperture display aspect ratio      : 16:9
Frame rate mode                          : Constant
Frame rate                               : 25.000 FPS
Standard                                 : PAL
Color space                              : YUV
Chroma subsampling                       : 4:2:0
Bit depth                                : 8 bits
Scan type                                : Progressive
Bits/(Pixel*Frame)                       : 0.150
Stream size                              : 33.2 MiB (92%)
Language                                 : English
Encoded date                             : UTC 2008-04-08 00:41:43
Tagged date                              : UTC 2008-04-08 00:44:29
Color range                              : Limited
Color primaries                          : BT.601 NTSC
Transfer characteristics                 : BT.709
Matrix coefficients                      : BT.601
Codec configuration box                  : avcC

Audio
ID                                       : 1
Format                                   : AAC LC
Format/Info                              : Advanced Audio Codec Low Complexity
Codec ID                                 : mp4a-40-2
Duration                                 : 2 min 59 s
Source duration                          : 2 min 59 s
Bit rate mode                            : Constant
Bit rate                                 : 128 kb/s
Channel(s)                               : 2 channels
Channel layout                           : L R
Sampling rate                            : 48.0 kHz
Frame rate                               : 46.875 FPS (1024 SPF)
Compression mode                         : Lossy
Stream size                              : 2.71 MiB (8%)
Source stream size                       : 2.71 MiB (8%)
Language                                 : English
Encoded date                             : UTC 2008-04-08 00:41:43
Tagged date                              : UTC 2008-04-08 00:44:29</pre>
</div><div style="text-align: center">​</div></div>
</div><div style="text-align: center"><br>
<div class="bbCodeBlock bbCodeVfcHH HiddenContent">
<div class="attribution type">Hidden Content:</div>
<blockquote>You must reply before you can see the hidden data contained here.</blockquote>
</div></div>
<div class="messageTextEndMarker">&nbsp;</div>
</blockquote>
</article>]]></description>
                <author><![CDATA[fstambuk]]></author>
                </item>

                
                <item>
                <title><![CDATA[【HD Live Performances】MASTER - Doja Cat - Radio 1s Live Lounge BBC (Master 1080)]]></title>
                <link><![CDATA[https://sharemania.us/threads/doja-cat-radio-1s-live-lounge-bbc-master-1080.231391/]]></link>
                <description><![CDATA[<article>
<blockquote class="messageText SelectQuoteContainer ugc baseHtml">
<div style="text-align: center"><img src="https://i.imgur.com/beIGSxs.gif" class="bbCodeImage LbImage" alt="[​IMG]" data-url="https://i.imgur.com/beIGSxs.gif" style=""><br>
​</div>
<div class="ToggleTriggerAnchor bbCodeSpoilerContainer">
<button type="button" class="button bbCodeSpoilerButton ToggleTrigger Tooltip JsOnly" data-target="> .SpoilerTarget"><span>Spoiler: <span class="SpoilerTitle">ProRes</span></span></button>
<div class="SpoilerTarget bbCodeSpoilerText">
<div class="bbCodeBlock bbCodeCode">
<div class="type">Code:</div>
<pre>Format                                   : MPEG-4
Format profile                           : QuickTime
Codec ID                                 : qt   0000.00 (qt  )
File size                                : 1.37 GiB
Duration                                 : 3 min 25 s
Overall bit rate mode                    : Variable
Overall bit rate                         : 57.1 Mb/s
Encoded date                             : UTC 2020-03-16 17:27:08
Tagged date                              : UTC 2020-03-16 17:27:35
Writing library                          : Apple QuickTime

Video
ID                                       : 1
Format                                   : ProRes
Format version                           : Version 0
Format profile                           : 422 LT
Codec ID                                 : apcs
Duration                                 : 3 min 25 s
Bit rate mode                            : Variable
Bit rate                                 : 55.6 Mb/s
Width                                    : 1 920 pixels
Height                                   : 720 pixels
Display aspect ratio                     : 2.667
Frame rate mode                          : Constant
Frame rate                               : 25.000 FPS
Color space                              : YUV
Chroma subsampling                       : 4:2:2
Scan type                                : Progressive
Bits/(Pixel*Frame)                       : 1.609
Stream size                              : 1.33 GiB (97%)
Title                                    : Core Media Video
Writing library                          : abm0
Encoded date                             : UTC 2020-03-16 17:27:08
Tagged date                              : UTC 2020-03-16 17:27:35
Color primaries                          : BT.709
Transfer characteristics                 : BT.709
Matrix coefficients                      : BT.709

Audio
ID                                       : 2
Format                                   : PCM
Format settings                          : Little / Signed
Codec ID                                 : lpcm
Duration                                 : 3 min 25 s
Bit rate mode                            : Constant
Bit rate                                 : 1 536 kb/s
Channel(s)                               : 2 channels
Channel layout                           : L R
Sampling rate                            : 48.0 kHz
Bit depth                                : 16 bits
Stream size                              : 37.6 MiB (3%)
Title                                    : Core Media Audio
Encoded date                             : UTC 2020-03-16 17:27:08
Tagged date                              : UTC 2020-03-16 17:27:35

Other
ID                                       : 3
Type                                     : Time code
Format                                   : QuickTime TC
Duration                                 : 3 min 25 s
Frame rate                               : 25.000 FPS
Time code of first frame                 : 01:00:00:00
Time code, striped                       : Yes
Title                                    : Core Media Time Code
Encoded date                             : UTC 2020-03-16 17:27:08
Tagged date                              : UTC 2020-03-16 17:27:35</pre>
</div><div style="text-align: center">​</div></div>
</div><div style="text-align: center"><br>
<div class="bbCodeBlock bbCodeVfcHH HiddenContent">
<div class="attribution type">Hidden Content:</div>
<blockquote>You must reply before you can see the hidden data contained here.</blockquote>
</div></div>
<div class="messageTextEndMarker">&nbsp;</div>
</blockquote>
</article>]]></description>
                <author><![CDATA[fstambuk]]></author>
                </item>

                
                <item>
                <title><![CDATA[【HD Live Performances】WEB-RiP - Anitta - Ai Papai／Nu／Sua Cara／MODO TURBO／Envolver／Vai Malandra - Aviões Fantasy：O Halloween 29Oct2023 [1080p WEB-DL]]]></title>
                <link><![CDATA[https://sharemania.us/threads/anitta-ai-papai%EF%BC%8Fnu%EF%BC%8Fsua-cara%EF%BC%8Fmodo-turbo%EF%BC%8Fenvolver%EF%BC%8Fvai-malandra-avi%C3%B5es-fantasy%EF%BC%9Ao-halloween-29oct2023-1080p-web-dl.231388/]]></link>
                <description><![CDATA[<article>
<blockquote class="messageText SelectQuoteContainer ugc baseHtml">
<div style="text-align: center"><img src="https://i.imgur.com/PmcAURq.gif" class="bbCodeImage LbImage" alt="[​IMG]" data-url="https://i.imgur.com/PmcAURq.gif" style=""><br>
<div class="bbCodeBlock bbCodeVfcHH HiddenContent">
<div class="attribution type">Hidden Content:</div>
<blockquote>You must reply before you can see the hidden data contained here.</blockquote>
</div><img src="https://i.imgur.com/fdsa0tk.gif" class="bbCodeImage LbImage" alt="[​IMG]" data-url="https://i.imgur.com/fdsa0tk.gif" style=""><br>
<div class="bbCodeBlock bbCodeVfcHH HiddenContent">
<div class="attribution type">Hidden Content:</div>
<blockquote>You must reply before you can see the hidden data contained here.</blockquote>
</div><img src="https://i.imgur.com/SAvkAYN.gif" class="bbCodeImage LbImage" alt="[​IMG]" data-url="https://i.imgur.com/SAvkAYN.gif" style=""><br>
<div class="bbCodeBlock bbCodeVfcHH HiddenContent">
<div class="attribution type">Hidden Content:</div>
<blockquote>You must reply before you can see the hidden data contained here.</blockquote>
</div><img src="https://ichef.bbci.co.uk/images/ic/640x360/p0gnz93d.jpg" class="bbCodeImage LbImage" alt="[​IMG]" data-url="https://ichef.bbci.co.uk/images/ic/640x360/p0gnz93d.jpg" style=""><br>
​</div>
<div class="messageTextEndMarker">&nbsp;</div>
</blockquote>
</article>]]></description>
                <author><![CDATA[SCANDAL]]></author>
                </item>

                </channel></rss>